PathFileType	4	(X/Y/Z)	Patient4_TMGait_0pt3_01_right_10.trc.trc
DataRate	CameraRate	NumFrames	NumMarkers	Units	OrigDataRate	OrigDataStartFrame	OrigNumFrames
51.660516605166	51.660516605166	7	33	mm	51.660516605166	1	       141
Frame#	Time	Sacral			L.Shoulder			Chest			R.Shoulder			Neck			R.ASIS			L.ASIS			R.Thigh.Superior			R.Thigh.Lateral			R.Thigh.Inferior			R.Patella			L.Thigh.Superior			L.Thigh.Lateral			L.Thigh.Inferior			L.Patella			L.Shank.Superior			L.Shank.Lateral			L.Shank.Inferior			R.Shank.Superior			R.Shank.Lateral			R.Shank.Inferior			R.Heel			R.Midfoot.Superior			R.Midfoot.Lateral			R.Toe			L.Heel			L.Midfoot.Lateral			L.Midfoot.Superior			L.Toe			L.Elbow			L.Wrist			R.Elbow			R.Wrist			
		X1	Y1	Z1	X2	Y2	Z2	X3	Y3	Z3	X4	Y4	Z4	X5	Y5	Z5	X6	Y6	Z6	X7	Y7	Z7	X8	Y8	Z8	X9	Y9	Z9	X10	Y10	Z10	X11	Y11	Z11	X12	Y12	Z12	X13	Y13	Z13	X14	Y14	Z14	X15	Y15	Z15	X16	Y16	Z16	X17	Y17	Z17	X18	Y18	Z18	X19	Y19	Z19	X20	Y20	Z20	X21	Y21	Z21	X22	Y22	Z22	X23	Y23	Z23	X24	Y24	Z24	X25	Y25	Z25	X26	Y26	Z26	X27	Y27	Z27	X28	Y28	Z28	X29	Y29	Z29	X30	Y30	Z30	X31	Y31	Z31	X32	Y32	Z32	X33	Y33	Z33	

1	17.440000000000	670.979764959000	1005.894292404300	437.366611160002	827.006489421540	1435.647906314653	241.542765444290	952.666633490662	1362.404063327162	382.807878462028	901.428841131731	1437.803623826802	566.655254863178	836.268519376537	1494.272668084174	407.967885505184	910.171493893807	938.750642458759	527.771824226425	868.133725524816	960.349977605190	257.085384242547	953.210506453048	740.122640550697	506.909232872657	887.284968100502	631.488639155102	584.209051970313	961.198047449618	572.310257065599	501.327048508662	957.418478178214	463.921886642907	528.017445574074	926.602547394674	751.179410907348	290.374176205484	840.077394160448	627.675006114022	243.106671228889	932.209100453814	554.792780420525	302.324752838350	935.877782643470	482.558375106641	311.967069793344	899.584326447029	410.169262126355	308.970966853845	797.698221627179	303.268198013560	267.519887102690	842.941006058598	189.352303799002	337.250104821585	879.598274686311	398.557476315989	543.784423875989	760.119127751983	363.562396870674	609.597224590474	746.108032993168	250.673185209853	568.798526595801	544.499828254275	186.211638046282	545.265501811403	713.341444601413	134.259926803608	596.138140120518	603.420616258038	139.328395513818	627.437702197706	777.512526630149	31.458732828856	639.471930945668	705.488563719907	39.695307190272	388.918308630095	772.278395723556	35.921172801466	302.661657940725	859.312699682474	95.648553753196	322.566465893571	983.375892074386	39.815199020913	281.678588657843	777.164358369466	1118.237878221453	66.511328992353	929.584238538920	941.238725091367	-54.187278454954	1044.298441169672	1105.500721637239	607.642821677418	1202.530495469152	1064.949529064885	403.668737456174	
2	17.459357142857	667.107543157177	1004.163550306917	433.529088103061	827.241901906823	1434.479919487101	239.656234619189	950.421782744848	1361.031278952965	382.800473827583	896.348080243772	1435.846911552807	566.069899528540	834.315726652198	1492.838067244318	406.245104853316	905.452804171221	937.906114324660	526.240005743091	866.064327762910	959.051422831289	255.252287255592	953.860542886141	742.856345611969	503.648603444966	891.868506629177	632.379948596846	580.682625472999	967.285693213965	575.547802097575	497.397580839614	966.196967838772	466.199598606069	524.006317973983	924.681930809302	750.013043814605	288.979377937351	838.561160301807	626.370165622489	241.703716917180	930.476127144637	553.694662641244	301.706609749641	933.974918084116	481.192310593610	311.623437084606	896.940384932481	408.814806911162	308.582372371750	794.263727283004	302.707310579028	267.045374399229	838.096069368200	188.610501066814	337.123765453787	887.720014521245	400.315191542694	539.650556782308	766.828599636028	366.684320692009	603.899267019666	752.533789672717	253.607443289027	563.772092410436	550.694796967319	189.881024409613	537.715158692120	718.892862601790	138.091520314834	591.597408779956	608.342602995111	143.849008078910	621.154672178558	781.870399021779	34.407524565875	637.083380117375	699.489039815998	39.649787966969	388.843063530009	766.313761983954	35.861767535895	302.577501151419	853.374420709576	95.570642042501	322.589533925717	977.446801540892	39.737695770990	281.663498658773	786.439141631497	1118.857944060269	60.454583168181	948.496662995538	951.237009830252	-58.782641968142	1028.205036608960	1099.003660318760	614.980269310646	1191.016881650094	1036.385847608359	424.864012901935	
3	17.478714285714	663.164318728875	1002.466123921784	429.645046935798	827.547167671399	1433.307064724914	237.799099589822	948.163450167658	1359.641208492920	382.866703616762	891.162188996840	1433.885675882992	565.520008656898	832.357850856408	1491.401842151079	404.538514703171	900.638434232727	937.043990020443	524.745210058408	863.989579170573	957.743971310822	253.466586833484	954.366392038435	745.655295546605	500.505436818197	896.329299172262	633.380760766725	577.270096465699	973.272796725492	578.942591549664	493.625240061741	974.980411075554	468.706550923080	520.161634508993	922.695375281831	748.808790302643	287.579879095601	836.938972550676	625.054691197823	240.303535354795	928.624965809585	552.563664710580	301.071571218212	931.948554205170	479.803113078873	311.265512353545	894.167734549205	407.440964088519	308.185918719232	790.695881781639	302.135547063401	266.562264803180	833.081391616045	187.857687680182	336.992978071950	896.003821486724	402.150798912226	535.654355722955	773.787431026914	369.463763951787	598.317155721697	759.537658726363	256.166663675156	558.806438904714	557.614672258749	192.509943227506	530.244221603670	725.347252206446	141.430219986219	587.006283586344	614.166431907138	147.436708804920	614.901756356841	787.569612336862	37.142864378556	634.541084483308	693.335469261000	39.605301613175	388.766810990458	760.198761988200	35.801412696654	302.489981735304	847.283102233457	95.486183244174	322.608892958449	971.366450078997	39.656261599209	281.646017820294	795.954228546795	1119.558837924134	54.448515084718	967.682811080190	961.640861425904	-63.250547115046	1011.682684088071	1092.589648388666	622.438729400306	1178.160994664959	1007.475585792028	446.992582651792	
4	17.498071428571	659.245944832873	1000.902030532309	425.819120324328	827.960282510330	1432.188876403296	236.057650963589	945.964010307560	1358.293586716235	383.054117775231	885.988666556368	1432.004217941791	565.048494272380	830.462319472411	1490.033292609407	402.920042905266	895.835701577855	936.215920171546	523.368423397182	861.981173122184	956.485717814375	251.822893005182	954.616861657625	748.464721614890	497.651187484837	900.426888814908	634.518575393825	574.158334051870	978.864837827619	582.451236730309	490.224164490451	983.433132723669	471.484017864255	516.707292654975	920.659851262184	747.597723830769	286.239843008201	835.184949726635	623.783812972261	238.963315889090	926.621068596581	551.428446367287	300.450708915671	929.760450462976	478.435680840883	310.914224661977	891.254360686408	406.098046252988	307.799596330747	787.012267514066	301.575587405540	266.089039706892	827.958087189453	187.121182302147	336.861040899722	904.240217220658	404.056270798254	532.015474337573	780.919733300774	371.629248840629	593.126411715255	767.239351448347	258.090140321469	554.131483354219	565.527408732397	193.467518505600	523.181330496568	733.046889437815	143.951956349630	582.548199692621	621.283733369098	149.512631716673	608.945289537162	795.195771931119	39.531635395374	631.912255007672	687.135104647551	39.565555919013	388.690774655506	754.040831909649	35.742944401872	302.400993973962	841.144696079105	95.396899390780	322.621786052455	965.241036939983	39.572214742329	281.625167869333	805.515194105092	1120.393915162427	48.711881965527	986.650661256906	972.378491141481	-67.380097234799	994.969819364481	1086.553883763069	629.866300970444	1163.598621945651	979.093805571232	469.807980368686	
5	17.517428571429	655.431141278699	999.575200316517	422.133609282729	828.520245159200	1431.195475288881	234.508580606090	943.884900412883	1357.058182789455	383.409215858187	880.921243162730	1430.289519408935	564.695126367133	828.685956181636	1488.807641170810	401.454875752839	891.129326222813	935.485719886656	522.183800155637	860.104192501520	955.342298751212	250.402855404400	954.512560838224	751.244187304512	495.228794256276	903.949768852036	635.820522312049	571.506503931928	983.799670451604	586.031869025588	487.374072133793	991.254833731838	474.570996128691	513.837266956340	918.576613774679	746.413782302845	285.026980214470	833.260138564210	622.615671358219	237.737243981080	924.406890206419	550.320156865003	299.883371349340	927.344468748763	477.136031052452	310.598155455844	888.158677193582	404.840049614178	307.444856811497	783.200797013544	301.053973721027	265.644522309712	822.759041051739	186.431036077487	336.731683258450	912.249905012991	406.033377135016	528.926716635001	788.180058761432	372.957974057217	588.569091646605	775.773945768942	259.175822928031	549.958380423521	574.742242165123	192.241426494308	516.810276402891	742.331503876656	145.409480620683	578.417850857069	630.089325756410	149.624054911998	603.528645203664	805.261494613703	41.482499244870	629.311832668859	680.961717103085	39.535704007860	388.615081893089	747.912915224394	35.689569808195	302.312718864847	835.031550704365	95.305766551490	322.625329257147	959.142414816562	39.486893282248	281.599924171532	814.965645155810	1121.436657022588	43.415596452911	1005.006770350763	983.438928602296	-71.003776266286	978.193565800315	1081.161192845966	637.165677287515	1146.963067140954	952.019828062085	493.114567220568	
6	17.536785714286	651.782008053403	998.584040759611	418.649249280284	829.262212758735	1430.401804420792	233.215282472681	941.974355308946	1356.009646840265	383.973301119415	876.030253103513	1428.825488037151	564.494097857877	827.072508350702	1487.800405337624	400.198758629318	886.581797182365	934.925309822439	521.255879275465	858.413397733457	954.381627556239	249.271408209793	953.974596021744	753.964253061587	493.343177905478	906.726599994435	637.305134467593	569.435895738033	987.860288385171	589.636798251479	485.207301548027	998.190110813818	477.990940938111	511.699453107638	916.434006028430	745.292144352697	284.009962058084	831.119264573949	621.607860596992	236.674274281473	921.910589332806	549.271312623637	299.415305001958	924.615795737525	475.948929906677	310.352231563201	884.817962669642	403.721518652732	307.145705128416	779.226088784731	300.599378061428	265.247412830861	817.494321523420	185.818135874997	336.609129220719	919.882346638516	408.089409137343	526.539428519190	795.545142635921	373.300391794433	584.839500745148	785.260521605009	259.307152738581	546.467401422432	585.563240719845	188.505582830752	511.359049505207	753.485036259108	145.667935655359	574.808393802490	640.928819138140	147.504914215309	598.861105793223	818.135347645774	42.972265428569	626.893579546928	674.858000109791	39.521801585604	388.538738754563	741.855774403435	35.644684341063	302.227531904429	828.984795662891	95.217033649817	322.616940922561	953.110443420905	39.401756916631	281.569445233128	824.184167627895	1122.772124878137	38.673890136898	1022.461902038504	994.855031181457	-74.008494388387	961.381369706252	1076.632707576817	644.293060841864	1127.956026290920	926.916571137441	516.737106471116	
7	17.556142857143	648.347076567393	998.009498820802	415.410299232186	830.213070200683	1429.877882423380	232.226362245824	940.266363972332	1355.218253217138	384.779776713661	871.365577550977	1427.685229270805	564.472742568230	825.651687074947	1487.079073875326	399.196545676154	882.236225799449	934.606701037325	520.639083626554	856.949910232540	953.665472297893	248.476495806336	952.948624409888	756.600109090657	492.059335185099	908.629571779823	638.973864231906	568.026594873226	990.879862672647	593.205729383919	483.804440375949	1004.031736168133	481.740727215299	510.385899045013	914.212081968194	744.265578304176	283.255009310507	828.718323890774	620.812407661891	235.815914883924	919.057768972630	548.312705420598	299.094402560888	921.484144003580	474.914123191400	310.214479625779	881.160895073788	402.792323493906	306.926706114570	775.039761299511	300.239393430650	264.915527294321	812.159252362409	185.311012524874	336.498117235868	927.011230504895	410.231376687589	524.953917544985	803.005294493435	372.591580382958	582.078300991924	795.775186696216	258.465682451369	543.798861958756	598.243415536799	182.157588076103	506.999702378974	766.694087581481	144.722463236606	571.894703654878	654.057499014377	143.103458132420	595.110250914283	834.000451177237	44.061291262728	624.824230616198	668.841127133949	39.529692133869	388.459865688087	735.883816639950	35.611533894426	302.147775770936	823.020054693311	95.135842464733	322.594846612743	947.158891426333	39.318382184230	281.533343037257	833.078747627775	1124.484692274521	34.544051494408	1038.824168713433	1006.680603787433	-76.337400146606	944.487488950826	1073.139064036651	651.248305920910	1106.402251483897	904.319194966309	540.493839901921	
